<?xml version="1.0" standalone="no"?>
<!DOCTYPE svg PUBLIC "-//W3C//DTD SVG 20010904//EN"
 "http://www.w3.org/TR/2001/REC-SVG-20010904/DTD/svg10.dtd">
<svg version="1.0" xmlns="http://www.w3.org/2000/svg"
 width="397.000000pt" height="397.000000pt" viewBox="0 0 397.000000 397.000000"
 preserveAspectRatio="xMidYMid meet">
<metadata>
Created by potrace 1.14, written by Peter Selinger 2001-2017
</metadata>
<g transform="translate(0.000000,397.000000) scale(0.100000,-0.100000)"
fill="#000000" stroke="none">
<path d="M1948 3354 c-3 -2 -149 -5 -324 -5 -176 0 -323 -3 -329 -7 -14 -10
-17 -32 -5 -32 5 0 10 -6 10 -13 0 -7 11 -24 25 -39 14 -15 25 -30 25 -33 0
-8 44 -69 53 -73 4 -2 7 -10 7 -18 0 -8 5 -14 10 -14 6 0 10 -7 10 -15 0 -8 5
-15 10 -15 6 0 10 -6 10 -14 0 -8 4 -16 8 -18 4 -1 28 -32 52 -68 25 -36 50
-70 56 -77 6 -6 25 -34 43 -62 18 -28 37 -51 43 -51 5 0 7 -4 4 -9 -3 -5 5
-20 18 -34 13 -14 21 -28 18 -31 -3 -3 0 -6 6 -6 7 0 12 -6 12 -12 0 -7 12
-26 26 -43 14 -16 33 -42 42 -57 9 -16 20 -28 24 -28 4 0 8 -6 8 -12 0 -7 10
-25 23 -40 12 -14 29 -36 37 -48 8 -12 21 -28 28 -36 6 -7 12 -16 12 -21 0
-10 39 -36 58 -39 8 -1 16 -5 19 -8 15 -14 103 58 103 84 0 6 4 10 8 10 10 0
62 77 62 91 0 6 4 8 9 5 5 -3 14 8 21 24 7 17 15 30 19 30 12 0 41 57 33 66
-4 5 -3 6 2 2 5 -5 33 27 63 70 29 42 60 85 68 95 8 9 15 20 15 23 0 3 13 23
30 44 16 20 27 40 23 44 -3 3 -1 6 4 6 6 0 24 20 40 45 15 25 31 45 36 45 4 0
7 7 7 15 0 8 5 15 12 15 6 0 8 3 5 6 -4 4 3 15 15 25 11 11 18 19 15 19 -3 0
23 41 59 92 35 50 63 96 61 102 -2 6 -23 12 -47 13 -23 1 -49 4 -56 7 -8 3
-14 1 -14 -5 0 -6 -7 -6 -20 1 -14 8 -20 8 -20 0 0 -6 -4 -9 -9 -6 -11 7 -230
11 -236 4 -3 -2 -27 -2 -55 2 -27 3 -55 3 -61 -1 -7 -4 -24 -3 -40 1 -15 5
-30 6 -33 3 -8 -8 -131 -8 -143 0 -6 4 -12 4 -15 1z"/>
<path d="M2854 3286 c-6 -6 -19 -25 -29 -41 -11 -17 -32 -47 -48 -67 -16 -21
-25 -38 -20 -38 4 0 3 -4 -3 -8 -6 -4 -37 -45 -70 -92 -32 -47 -62 -89 -66
-95 -54 -70 -86 -120 -82 -127 3 -4 1 -8 -5 -8 -5 0 -20 -17 -32 -37 -13 -21
-26 -40 -29 -43 -3 -3 -17 -21 -30 -40 -13 -19 -29 -38 -35 -42 -6 -5 -6 -8 0
-8 6 0 6 -3 -1 -8 -6 -4 -41 -52 -79 -107 -37 -55 -71 -102 -74 -105 -12 -10
-71 -101 -71 -109 0 -5 -4 -11 -8 -13 -5 -1 -22 -24 -40 -49 -44 -65 -97 -117
-125 -125 -41 -10 -84 22 -148 109 -33 45 -67 90 -75 100 -8 9 -14 21 -14 26
0 4 -9 16 -20 26 -11 10 -20 24 -20 32 0 7 -4 13 -8 13 -5 0 -15 12 -23 28 -8
15 -17 29 -20 32 -3 3 -22 30 -42 60 -20 30 -40 60 -45 65 -4 6 -21 28 -37 50
-17 22 -33 42 -37 43 -5 2 -8 10 -8 18 0 8 -4 14 -10 14 -5 0 -10 7 -10 15 0
8 -4 15 -10 15 -5 0 -10 5 -10 10 0 11 -33 60 -62 94 -10 11 -18 26 -18 33 0
7 -3 13 -8 13 -4 0 -18 18 -32 40 -14 22 -28 40 -33 40 -4 0 -5 5 -2 10 3 6 3
10 -2 10 -4 0 -19 17 -33 38 -14 20 -29 40 -35 44 -7 5 -7 8 0 8 6 0 6 3 -1 8
-11 7 -94 130 -94 138 0 10 -29 34 -41 34 -21 0 -79 -24 -79 -32 0 -4 -5 -8
-10 -8 -14 0 -93 -52 -103 -67 -4 -7 -15 -13 -22 -13 -8 0 -14 -3 -13 -7 1 -5
-26 -37 -60 -72 -34 -35 -62 -67 -62 -72 0 -4 -6 -14 -13 -21 -7 -7 -21 -30
-30 -50 -10 -21 -23 -38 -29 -38 -6 0 -9 -3 -5 -6 3 -4 0 -19 -9 -35 -8 -16
-12 -29 -8 -29 4 0 2 -6 -3 -12 -13 -16 -29 -79 -38 -148 -12 -89 -14 -242
-14 -730 1 -639 0 -590 12 -590 5 0 4 -7 -3 -15 -6 -8 -9 -19 -5 -26 4 -6 9
-30 11 -53 5 -55 8 -69 17 -83 5 -7 6 -13 2 -13 -3 0 1 -13 10 -30 9 -16 13
-30 9 -30 -3 0 1 -11 10 -25 9 -13 16 -31 16 -40 0 -8 5 -15 10 -15 6 0 10 -6
10 -14 0 -8 7 -21 15 -30 9 -8 15 -18 15 -21 -2 -12 78 -114 84 -108 3 3 6 1
6 -6 0 -15 54 -71 69 -71 6 0 11 -4 11 -9 0 -29 255 -154 315 -154 8 0 15 -3
15 -7 0 -10 24 -11 496 -14 248 -2 456 -6 461 -9 6 -4 13 -4 16 0 9 9 317 9
317 0 0 -5 6 -5 13 0 6 4 39 8 72 9 33 1 60 3 60 4 0 1 18 4 40 5 22 2 41 4
43 5 1 2 7 4 12 5 6 1 12 4 15 5 3 1 8 3 13 4 18 3 110 41 137 56 78 44 105
63 105 72 0 5 5 6 10 3 6 -3 10 -2 10 4 0 5 18 22 40 38 22 15 40 32 40 36 0
4 10 19 23 32 53 57 67 73 67 83 0 6 8 16 18 21 9 6 14 11 10 11 -3 0 11 35
32 77 21 42 37 81 34 85 -3 4 0 8 5 8 6 0 10 3 9 7 -1 5 1 22 5 38 4 17 10 40
12 52 3 13 7 33 10 46 8 30 8 1277 1 1347 -3 30 -10 70 -15 88 -5 17 -8 32 -5
32 2 0 -7 25 -21 55 -13 31 -24 56 -24 58 2 6 -37 82 -43 85 -5 2 -8 10 -8 18
0 8 -7 17 -15 20 -8 3 -17 14 -20 23 -3 10 -13 26 -23 37 -9 11 -34 38 -54 62
-21 23 -38 40 -38 37 0 -2 -10 6 -23 18 -37 36 -72 62 -88 65 -7 2 -16 7 -19
11 -5 8 -42 23 -49 21 -2 -1 -7 3 -11 9 -10 17 -43 21 -56 7z m-1828 -614 c-3
-3 5 -15 19 -27 13 -13 22 -25 19 -28 -2 -2 2 -10 11 -17 8 -7 15 -19 15 -27
0 -8 5 -11 10 -8 6 3 10 0 10 -8 0 -7 9 -23 20 -35 11 -12 20 -26 20 -32 0 -5
5 -10 10 -10 6 0 10 -6 10 -13 0 -8 9 -22 20 -32 11 -10 20 -22 20 -27 0 -5 9
-18 20 -30 11 -12 20 -28 20 -35 0 -8 5 -11 10 -8 6 3 10 0 10 -8 0 -7 9 -23
19 -34 11 -12 17 -24 14 -27 -4 -3 -2 -6 3 -6 5 0 20 -18 34 -40 14 -22 28
-40 32 -40 5 0 8 -4 8 -10 0 -11 91 -144 102 -148 4 -2 8 -8 8 -13 0 -10 10
-24 43 -60 9 -10 18 -22 18 -26 4 -21 12 -32 20 -27 5 3 8 2 7 -3 -3 -11 34
-73 44 -73 4 0 8 -7 8 -15 0 -8 5 -15 10 -15 6 0 10 -5 10 -10 0 -15 56 -90
64 -85 3 3 4 2 1 -1 -6 -9 27 -54 78 -108 50 -52 106 -82 166 -89 47 -5 131
14 153 36 7 6 25 18 40 26 16 8 26 16 24 18 -2 3 10 19 28 37 17 18 40 45 51
60 11 15 25 32 30 39 22 28 55 77 55 82 0 3 9 14 20 25 12 12 18 26 14 33 -4
7 -4 9 1 5 7 -6 66 68 82 102 4 8 9 17 12 20 3 3 20 25 36 50 17 25 35 51 42
57 6 7 21 29 34 50 13 21 34 49 46 63 13 14 23 29 23 33 0 5 7 15 15 24 8 8
12 20 8 26 -3 7 -3 9 2 5 8 -8 55 53 55 71 0 6 3 11 8 11 4 0 18 17 32 38 13
20 45 67 71 103 26 37 45 70 42 73 -4 3 -1 6 5 6 5 0 20 16 32 35 47 76 65 79
76 10 8 -51 8 -1232 0 -1303 -4 -29 -11 -65 -17 -80 -6 -15 -11 -29 -11 -32
-3 -26 -25 -60 -73 -115 -19 -22 -35 -44 -35 -48 0 -5 -5 -5 -10 -2 -6 3 -13
-1 -16 -9 -3 -9 -10 -14 -14 -11 -4 3 -13 -2 -20 -10 -7 -8 -16 -12 -21 -9 -5
3 -9 0 -9 -5 0 -6 -4 -11 -9 -11 -5 0 -22 -5 -38 -12 -56 -22 -84 -27 -174
-30 -47 -1 -75 -6 -72 -11 4 -6 1 -7 -8 -2 -17 11 -149 13 -149 2 0 -5 -4 -6
-10 -2 -13 8 -188 10 -196 3 -3 -4 -18 -2 -32 3 -18 7 -28 7 -30 0 -2 -6 -9
-8 -15 -4 -15 9 -157 10 -163 1 -3 -4 -16 -3 -30 2 -16 7 -32 7 -43 0 -10 -5
-21 -7 -23 -4 -3 3 -104 7 -224 9 -224 4 -248 6 -260 18 -4 4 -14 7 -23 7 -52
0 -186 106 -227 180 -10 19 -22 37 -25 40 -5 4 -16 37 -24 75 -13 54 -23 300
-14 310 2 2 2 56 -1 120 -3 64 -2 119 3 122 4 2 5 8 2 12 -6 11 -6 737 1 776
3 17 6 39 8 50 4 26 4 25 21 18 9 -3 13 -8 11 -11z"/>
</g>
</svg>
